G04 EAGLE Gerber RS-274X export*
G75*
%MOMM*%
%FSLAX34Y34*%
%LPD*%
%IN*%
%IPPOS*%
%AMOC8*
5,1,8,0,0,1.08239X$1,22.5*%
G01*
%ADD10C,0.254000*%


D10*
X630000Y-575000D02*
X1300000Y-575000D01*
X1300000Y205000D01*
X630000Y205000D01*
X630000Y-575000D01*
X715668Y-308400D02*
X714606Y-308330D01*
X713552Y-308192D01*
X712508Y-307984D01*
X711480Y-307709D01*
X710473Y-307367D01*
X709490Y-306959D01*
X708536Y-306489D01*
X707614Y-305957D01*
X706730Y-305366D01*
X705886Y-304718D01*
X705086Y-304017D01*
X704333Y-303264D01*
X703632Y-302464D01*
X702984Y-301620D01*
X702393Y-300736D01*
X701861Y-299814D01*
X701391Y-298860D01*
X700983Y-297877D01*
X700641Y-296870D01*
X700366Y-295842D01*
X700158Y-294798D01*
X700020Y-293744D01*
X699950Y-292682D01*
X699950Y-291618D01*
X700020Y-290556D01*
X700158Y-289502D01*
X700366Y-288458D01*
X700641Y-287430D01*
X700983Y-286423D01*
X701391Y-285440D01*
X701861Y-284486D01*
X702393Y-283564D01*
X702984Y-282680D01*
X703632Y-281836D01*
X704333Y-281036D01*
X705086Y-280283D01*
X705886Y-279582D01*
X706730Y-278934D01*
X707614Y-278343D01*
X708536Y-277811D01*
X709490Y-277341D01*
X710473Y-276933D01*
X711480Y-276591D01*
X712508Y-276316D01*
X713552Y-276108D01*
X714606Y-275970D01*
X715668Y-275900D01*
X716732Y-275900D01*
X717794Y-275970D01*
X718848Y-276108D01*
X719892Y-276316D01*
X720920Y-276591D01*
X721927Y-276933D01*
X722910Y-277341D01*
X723864Y-277811D01*
X724786Y-278343D01*
X725670Y-278934D01*
X726514Y-279582D01*
X727314Y-280283D01*
X728067Y-281036D01*
X728768Y-281836D01*
X729416Y-282680D01*
X730007Y-283564D01*
X730539Y-284486D01*
X731009Y-285440D01*
X731417Y-286423D01*
X731759Y-287430D01*
X732034Y-288458D01*
X732242Y-289502D01*
X732380Y-290556D01*
X732450Y-291618D01*
X732450Y-292682D01*
X732380Y-293744D01*
X732242Y-294798D01*
X732034Y-295842D01*
X731759Y-296870D01*
X731417Y-297877D01*
X731009Y-298860D01*
X730539Y-299814D01*
X730007Y-300736D01*
X729416Y-301620D01*
X728768Y-302464D01*
X728067Y-303264D01*
X727314Y-304017D01*
X726514Y-304718D01*
X725670Y-305366D01*
X724786Y-305957D01*
X723864Y-306489D01*
X722910Y-306959D01*
X721927Y-307367D01*
X720920Y-307709D01*
X719892Y-307984D01*
X718848Y-308192D01*
X717794Y-308330D01*
X716732Y-308400D01*
X715668Y-308400D01*
X715668Y-194100D02*
X714606Y-194030D01*
X713552Y-193892D01*
X712508Y-193684D01*
X711480Y-193409D01*
X710473Y-193067D01*
X709490Y-192659D01*
X708536Y-192189D01*
X707614Y-191657D01*
X706730Y-191066D01*
X705886Y-190418D01*
X705086Y-189717D01*
X704333Y-188964D01*
X703632Y-188164D01*
X702984Y-187320D01*
X702393Y-186436D01*
X701861Y-185514D01*
X701391Y-184560D01*
X700983Y-183577D01*
X700641Y-182570D01*
X700366Y-181542D01*
X700158Y-180498D01*
X700020Y-179444D01*
X699950Y-178382D01*
X699950Y-177318D01*
X700020Y-176256D01*
X700158Y-175202D01*
X700366Y-174158D01*
X700641Y-173130D01*
X700983Y-172123D01*
X701391Y-171140D01*
X701861Y-170186D01*
X702393Y-169264D01*
X702984Y-168380D01*
X703632Y-167536D01*
X704333Y-166736D01*
X705086Y-165983D01*
X705886Y-165282D01*
X706730Y-164634D01*
X707614Y-164043D01*
X708536Y-163511D01*
X709490Y-163041D01*
X710473Y-162633D01*
X711480Y-162291D01*
X712508Y-162016D01*
X713552Y-161808D01*
X714606Y-161670D01*
X715668Y-161600D01*
X716732Y-161600D01*
X717794Y-161670D01*
X718848Y-161808D01*
X719892Y-162016D01*
X720920Y-162291D01*
X721927Y-162633D01*
X722910Y-163041D01*
X723864Y-163511D01*
X724786Y-164043D01*
X725670Y-164634D01*
X726514Y-165282D01*
X727314Y-165983D01*
X728067Y-166736D01*
X728768Y-167536D01*
X729416Y-168380D01*
X730007Y-169264D01*
X730539Y-170186D01*
X731009Y-171140D01*
X731417Y-172123D01*
X731759Y-173130D01*
X732034Y-174158D01*
X732242Y-175202D01*
X732380Y-176256D01*
X732450Y-177318D01*
X732450Y-178382D01*
X732380Y-179444D01*
X732242Y-180498D01*
X732034Y-181542D01*
X731759Y-182570D01*
X731417Y-183577D01*
X731009Y-184560D01*
X730539Y-185514D01*
X730007Y-186436D01*
X729416Y-187320D01*
X728768Y-188164D01*
X728067Y-188964D01*
X727314Y-189717D01*
X726514Y-190418D01*
X725670Y-191066D01*
X724786Y-191657D01*
X723864Y-192189D01*
X722910Y-192659D01*
X721927Y-193067D01*
X720920Y-193409D01*
X719892Y-193684D01*
X718848Y-193892D01*
X717794Y-194030D01*
X716732Y-194100D01*
X715668Y-194100D01*
X715668Y-128400D02*
X714606Y-128330D01*
X713552Y-128192D01*
X712508Y-127984D01*
X711480Y-127709D01*
X710473Y-127367D01*
X709490Y-126959D01*
X708536Y-126489D01*
X707614Y-125957D01*
X706730Y-125366D01*
X705886Y-124718D01*
X705086Y-124017D01*
X704333Y-123264D01*
X703632Y-122464D01*
X702984Y-121620D01*
X702393Y-120736D01*
X701861Y-119814D01*
X701391Y-118860D01*
X700983Y-117877D01*
X700641Y-116870D01*
X700366Y-115842D01*
X700158Y-114798D01*
X700020Y-113744D01*
X699950Y-112682D01*
X699950Y-111618D01*
X700020Y-110556D01*
X700158Y-109502D01*
X700366Y-108458D01*
X700641Y-107430D01*
X700983Y-106423D01*
X701391Y-105440D01*
X701861Y-104486D01*
X702393Y-103564D01*
X702984Y-102680D01*
X703632Y-101836D01*
X704333Y-101036D01*
X705086Y-100283D01*
X705886Y-99582D01*
X706730Y-98934D01*
X707614Y-98343D01*
X708536Y-97811D01*
X709490Y-97341D01*
X710473Y-96933D01*
X711480Y-96591D01*
X712508Y-96316D01*
X713552Y-96108D01*
X714606Y-95970D01*
X715668Y-95900D01*
X716732Y-95900D01*
X717794Y-95970D01*
X718848Y-96108D01*
X719892Y-96316D01*
X720920Y-96591D01*
X721927Y-96933D01*
X722910Y-97341D01*
X723864Y-97811D01*
X724786Y-98343D01*
X725670Y-98934D01*
X726514Y-99582D01*
X727314Y-100283D01*
X728067Y-101036D01*
X728768Y-101836D01*
X729416Y-102680D01*
X730007Y-103564D01*
X730539Y-104486D01*
X731009Y-105440D01*
X731417Y-106423D01*
X731759Y-107430D01*
X732034Y-108458D01*
X732242Y-109502D01*
X732380Y-110556D01*
X732450Y-111618D01*
X732450Y-112682D01*
X732380Y-113744D01*
X732242Y-114798D01*
X732034Y-115842D01*
X731759Y-116870D01*
X731417Y-117877D01*
X731009Y-118860D01*
X730539Y-119814D01*
X730007Y-120736D01*
X729416Y-121620D01*
X728768Y-122464D01*
X728067Y-123264D01*
X727314Y-124017D01*
X726514Y-124718D01*
X725670Y-125366D01*
X724786Y-125957D01*
X723864Y-126489D01*
X722910Y-126959D01*
X721927Y-127367D01*
X720920Y-127709D01*
X719892Y-127984D01*
X718848Y-128192D01*
X717794Y-128330D01*
X716732Y-128400D01*
X715668Y-128400D01*
X715668Y-14100D02*
X714606Y-14030D01*
X713552Y-13892D01*
X712508Y-13684D01*
X711480Y-13409D01*
X710473Y-13067D01*
X709490Y-12659D01*
X708536Y-12189D01*
X707614Y-11657D01*
X706730Y-11066D01*
X705886Y-10418D01*
X705086Y-9717D01*
X704333Y-8964D01*
X703632Y-8164D01*
X702984Y-7320D01*
X702393Y-6436D01*
X701861Y-5514D01*
X701391Y-4560D01*
X700983Y-3577D01*
X700641Y-2570D01*
X700366Y-1542D01*
X700158Y-498D01*
X700020Y556D01*
X699950Y1618D01*
X699950Y2682D01*
X700020Y3744D01*
X700158Y4798D01*
X700366Y5842D01*
X700641Y6870D01*
X700983Y7877D01*
X701391Y8860D01*
X701861Y9814D01*
X702393Y10736D01*
X702984Y11620D01*
X703632Y12464D01*
X704333Y13264D01*
X705086Y14017D01*
X705886Y14718D01*
X706730Y15366D01*
X707614Y15957D01*
X708536Y16489D01*
X709490Y16959D01*
X710473Y17367D01*
X711480Y17709D01*
X712508Y17984D01*
X713552Y18192D01*
X714606Y18330D01*
X715668Y18400D01*
X716732Y18400D01*
X717794Y18330D01*
X718848Y18192D01*
X719892Y17984D01*
X720920Y17709D01*
X721927Y17367D01*
X722910Y16959D01*
X723864Y16489D01*
X724786Y15957D01*
X725670Y15366D01*
X726514Y14718D01*
X727314Y14017D01*
X728067Y13264D01*
X728768Y12464D01*
X729416Y11620D01*
X730007Y10736D01*
X730539Y9814D01*
X731009Y8860D01*
X731417Y7877D01*
X731759Y6870D01*
X732034Y5842D01*
X732242Y4798D01*
X732380Y3744D01*
X732450Y2682D01*
X732450Y1618D01*
X732380Y556D01*
X732242Y-498D01*
X732034Y-1542D01*
X731759Y-2570D01*
X731417Y-3577D01*
X731009Y-4560D01*
X730539Y-5514D01*
X730007Y-6436D01*
X729416Y-7320D01*
X728768Y-8164D01*
X728067Y-8964D01*
X727314Y-9717D01*
X726514Y-10418D01*
X725670Y-11066D01*
X724786Y-11657D01*
X723864Y-12189D01*
X722910Y-12659D01*
X721927Y-13067D01*
X720920Y-13409D01*
X719892Y-13684D01*
X718848Y-13892D01*
X717794Y-14030D01*
X716732Y-14100D01*
X715668Y-14100D01*
X715668Y51600D02*
X714606Y51670D01*
X713552Y51808D01*
X712508Y52016D01*
X711480Y52291D01*
X710473Y52633D01*
X709490Y53041D01*
X708536Y53511D01*
X707614Y54043D01*
X706730Y54634D01*
X705886Y55282D01*
X705086Y55983D01*
X704333Y56736D01*
X703632Y57536D01*
X702984Y58380D01*
X702393Y59264D01*
X701861Y60186D01*
X701391Y61140D01*
X700983Y62123D01*
X700641Y63130D01*
X700366Y64158D01*
X700158Y65202D01*
X700020Y66256D01*
X699950Y67318D01*
X699950Y68382D01*
X700020Y69444D01*
X700158Y70498D01*
X700366Y71542D01*
X700641Y72570D01*
X700983Y73577D01*
X701391Y74560D01*
X701861Y75514D01*
X702393Y76436D01*
X702984Y77320D01*
X703632Y78164D01*
X704333Y78964D01*
X705086Y79717D01*
X705886Y80418D01*
X706730Y81066D01*
X707614Y81657D01*
X708536Y82189D01*
X709490Y82659D01*
X710473Y83067D01*
X711480Y83409D01*
X712508Y83684D01*
X713552Y83892D01*
X714606Y84030D01*
X715668Y84100D01*
X716732Y84100D01*
X717794Y84030D01*
X718848Y83892D01*
X719892Y83684D01*
X720920Y83409D01*
X721927Y83067D01*
X722910Y82659D01*
X723864Y82189D01*
X724786Y81657D01*
X725670Y81066D01*
X726514Y80418D01*
X727314Y79717D01*
X728067Y78964D01*
X728768Y78164D01*
X729416Y77320D01*
X730007Y76436D01*
X730539Y75514D01*
X731009Y74560D01*
X731417Y73577D01*
X731759Y72570D01*
X732034Y71542D01*
X732242Y70498D01*
X732380Y69444D01*
X732450Y68382D01*
X732450Y67318D01*
X732380Y66256D01*
X732242Y65202D01*
X732034Y64158D01*
X731759Y63130D01*
X731417Y62123D01*
X731009Y61140D01*
X730539Y60186D01*
X730007Y59264D01*
X729416Y58380D01*
X728768Y57536D01*
X728067Y56736D01*
X727314Y55983D01*
X726514Y55282D01*
X725670Y54634D01*
X724786Y54043D01*
X723864Y53511D01*
X722910Y53041D01*
X721927Y52633D01*
X720920Y52291D01*
X719892Y52016D01*
X718848Y51808D01*
X717794Y51670D01*
X716732Y51600D01*
X715668Y51600D01*
X715668Y165900D02*
X714606Y165970D01*
X713552Y166108D01*
X712508Y166316D01*
X711480Y166591D01*
X710473Y166933D01*
X709490Y167341D01*
X708536Y167811D01*
X707614Y168343D01*
X706730Y168934D01*
X705886Y169582D01*
X705086Y170283D01*
X704333Y171036D01*
X703632Y171836D01*
X702984Y172680D01*
X702393Y173564D01*
X701861Y174486D01*
X701391Y175440D01*
X700983Y176423D01*
X700641Y177430D01*
X700366Y178458D01*
X700158Y179502D01*
X700020Y180556D01*
X699950Y181618D01*
X699950Y182682D01*
X700020Y183744D01*
X700158Y184798D01*
X700366Y185842D01*
X700641Y186870D01*
X700983Y187877D01*
X701391Y188860D01*
X701861Y189814D01*
X702393Y190736D01*
X702984Y191620D01*
X703632Y192464D01*
X704333Y193264D01*
X705086Y194017D01*
X705886Y194718D01*
X706730Y195366D01*
X707614Y195957D01*
X708536Y196489D01*
X709490Y196959D01*
X710473Y197367D01*
X711480Y197709D01*
X712508Y197984D01*
X713552Y198192D01*
X714606Y198330D01*
X715668Y198400D01*
X716732Y198400D01*
X717794Y198330D01*
X718848Y198192D01*
X719892Y197984D01*
X720920Y197709D01*
X721927Y197367D01*
X722910Y196959D01*
X723864Y196489D01*
X724786Y195957D01*
X725670Y195366D01*
X726514Y194718D01*
X727314Y194017D01*
X728067Y193264D01*
X728768Y192464D01*
X729416Y191620D01*
X730007Y190736D01*
X730539Y189814D01*
X731009Y188860D01*
X731417Y187877D01*
X731759Y186870D01*
X732034Y185842D01*
X732242Y184798D01*
X732380Y183744D01*
X732450Y182682D01*
X732450Y181618D01*
X732380Y180556D01*
X732242Y179502D01*
X732034Y178458D01*
X731759Y177430D01*
X731417Y176423D01*
X731009Y175440D01*
X730539Y174486D01*
X730007Y173564D01*
X729416Y172680D01*
X728768Y171836D01*
X728067Y171036D01*
X727314Y170283D01*
X726514Y169582D01*
X725670Y168934D01*
X724786Y168343D01*
X723864Y167811D01*
X722910Y167341D01*
X721927Y166933D01*
X720920Y166591D01*
X719892Y166316D01*
X718848Y166108D01*
X717794Y165970D01*
X716732Y165900D01*
X715668Y165900D01*
M02*
