G04 EAGLE Gerber RS-274X export*
G75*
%MOMM*%
%FSLAX34Y34*%
%LPD*%
%INSoldermask Bottom*%
%IPPOS*%
%AMOC8*
5,1,8,0,0,1.08239X$1,22.5*%
G01*
%ADD10C,2.387600*%
%ADD11C,1.879600*%
%ADD12R,1.711200X1.711200*%
%ADD13P,1.852186X8X22.500000*%
%ADD14C,1.711200*%
%ADD15C,1.311200*%
%ADD16C,1.601200*%
%ADD17C,3.453200*%
%ADD18P,2.144431X8X112.500000*%
%ADD19C,1.727200*%
%ADD20C,0.663200*%


D10*
X673400Y-349400D03*
X673400Y-384400D03*
D11*
X775000Y-380000D03*
X775000Y-405400D03*
X775000Y-354600D03*
D12*
X883800Y179800D03*
X960000Y-277400D03*
X1036200Y154400D03*
D11*
X1036200Y179800D03*
D13*
X1036200Y129000D03*
X934600Y-277400D03*
D14*
X909200Y-277400D03*
X985400Y-277400D03*
X1010800Y-277400D03*
X1036200Y-150400D03*
X883800Y-150400D03*
X883800Y154400D03*
X883800Y129000D03*
X883800Y103600D03*
X883800Y78200D03*
X883800Y52800D03*
X883800Y27400D03*
X883800Y2000D03*
X883800Y-23400D03*
X883800Y-48800D03*
X883800Y-74200D03*
X883800Y-99600D03*
X883800Y-125000D03*
X1010800Y154400D03*
X1036200Y-125000D03*
X1036200Y-99600D03*
X1036200Y-74200D03*
X1036200Y-48800D03*
X1036200Y-23400D03*
X1036200Y2000D03*
X1036200Y27400D03*
X1036200Y52800D03*
X1036200Y78200D03*
X1036200Y103600D03*
D13*
X883800Y-175800D03*
D14*
X883800Y-226600D03*
X883800Y-252000D03*
X883800Y-277400D03*
X883800Y-302800D03*
X883800Y-328200D03*
X883800Y-353600D03*
X883800Y-379000D03*
X883800Y-404400D03*
X1036200Y-201200D03*
X1036200Y-226600D03*
X1036200Y-252000D03*
X1036200Y-277400D03*
X1036200Y-302800D03*
X1036200Y-328200D03*
X1036200Y-353600D03*
X1036200Y-379000D03*
X1036200Y-404400D03*
X913800Y116300D03*
X913800Y90900D03*
X913800Y65500D03*
X913800Y40100D03*
X913800Y14700D03*
X883800Y-201200D03*
D12*
X1036200Y-175800D03*
D14*
X970000Y177500D03*
X950000Y177500D03*
D15*
X1010800Y50100D03*
X990800Y50100D03*
X970800Y50100D03*
X1010800Y30100D03*
X990800Y30100D03*
X970800Y30100D03*
D16*
X805100Y-177850D03*
X779700Y-190550D03*
X805100Y-203250D03*
X779700Y-215950D03*
X805100Y-228650D03*
X779700Y-241350D03*
X805100Y-254050D03*
X779700Y-266750D03*
X805100Y-279450D03*
X779700Y-292150D03*
D17*
X716200Y-292150D03*
X716200Y-177850D03*
D16*
X805100Y2150D03*
X779700Y-10550D03*
X805100Y-23250D03*
X779700Y-35950D03*
X805100Y-48650D03*
X779700Y-61350D03*
X805100Y-74050D03*
X779700Y-86750D03*
X805100Y-99450D03*
X779700Y-112150D03*
D17*
X716200Y-112150D03*
X716200Y2150D03*
D16*
X805100Y182150D03*
X779700Y169450D03*
X805100Y156750D03*
X779700Y144050D03*
X805100Y131350D03*
X779700Y118650D03*
X805100Y105950D03*
X779700Y93250D03*
X805100Y80550D03*
X779700Y67850D03*
D17*
X716200Y67850D03*
X716200Y182150D03*
D18*
X766500Y-495000D03*
X791900Y-495000D03*
X817300Y-495000D03*
X842700Y-495000D03*
X868100Y-495000D03*
X893500Y-495000D03*
X766500Y-545000D03*
X791900Y-545000D03*
X817300Y-545000D03*
X842700Y-545000D03*
X868100Y-545000D03*
X893500Y-545000D03*
D10*
X673400Y-452000D03*
X673400Y-487000D03*
D19*
X659600Y-545000D03*
X685000Y-545000D03*
X710400Y-545000D03*
D20*
X855218Y-129223D03*
X1127760Y72835D03*
X1151255Y18796D03*
X1188847Y-18796D03*
X1090168Y63437D03*
X1174750Y-25845D03*
X1188847Y18796D03*
X965645Y-110427D03*
X1155954Y-18796D03*
X1137158Y0D03*
X1174750Y145669D03*
X1130110Y145669D03*
X1177100Y155067D03*
X1127760Y155067D03*
X1158304Y164465D03*
X1099566Y145669D03*
X1076071Y58738D03*
X1108964Y-493395D03*
X1228789Y30544D03*
X1200595Y-460502D03*
X1214692Y25845D03*
X1127760Y32893D03*
X1078421Y82233D03*
X951548Y44641D03*
X862267Y-385318D03*
X1099566Y-190310D03*
X1099566Y-213805D03*
X862267Y-451104D03*
X1097217Y-152718D03*
X1160653Y-239649D03*
X1160653Y-124524D03*
X963295Y-206756D03*
X1155954Y-220853D03*
X1113663Y-140970D03*
X1137158Y-42291D03*
X1118362Y-68136D03*
X1179449Y-75184D03*
X1076071Y-75184D03*
X1141857Y-46990D03*
X1127760Y-61087D03*
X1024382Y-209106D03*
X1108964Y-126873D03*
X1047877Y-324231D03*
X1111314Y-173863D03*
X1146556Y-202057D03*
X1104265Y-143320D03*
X1047877Y-178562D03*
X1059625Y58738D03*
X1160653Y-387668D03*
X1099566Y-319532D03*
X862267Y-18796D03*
X1099566Y-375920D03*
X1163003Y-429959D03*
X1172401Y-354775D03*
X937451Y136271D03*
X1163003Y-293688D03*
X1130110Y-293688D03*
X1165352Y-274892D03*
X1127760Y-284290D03*
X1123061Y-270193D03*
X1101916Y-291338D03*
X1205294Y-465201D03*
X998538Y166815D03*
X1193546Y-354775D03*
X1029081Y89281D03*
X1172401Y-458153D03*
X1153605Y-439357D03*
X989140Y-458153D03*
X1099566Y-331280D03*
X1155954Y-265494D03*
X1099566Y-101029D03*
X1099566Y-28194D03*
X1207643Y-49340D03*
X1207643Y169164D03*
X1207643Y-265494D03*
X1205294Y-483997D03*
X1158304Y-340678D03*
X1113663Y-460502D03*
X1061974Y-437007D03*
X1054926Y-131572D03*
X949198Y-28194D03*
X972693Y-187960D03*
X967994Y-86932D03*
X817626Y-371221D03*
X895160Y-216154D03*
X824675Y-335979D03*
X836422Y-429959D03*
X843471Y-364173D03*
X871665Y-119825D03*
X904558Y-406464D03*
X763588Y-373571D03*
M02*
