G04 EAGLE Gerber RS-274X export*
G75*
%MOMM*%
%FSLAX34Y34*%
%LPD*%
%INSoldermask Top*%
%IPPOS*%
%AMOC8*
5,1,8,0,0,1.08239X$1,22.5*%
G01*
%ADD10C,2.387600*%
%ADD11C,1.879600*%
%ADD12R,1.203200X1.303200*%
%ADD13R,1.711200X1.711200*%
%ADD14P,1.852186X8X22.500000*%
%ADD15C,1.711200*%
%ADD16C,1.311200*%
%ADD17C,0.349006*%
%ADD18R,1.303200X1.203200*%
%ADD19R,0.990600X1.092200*%
%ADD20C,1.601200*%
%ADD21C,3.453200*%
%ADD22R,1.603200X1.203200*%
%ADD23P,2.144431X8X112.500000*%
%ADD24C,1.727200*%
%ADD25R,1.203200X1.603200*%
%ADD26C,0.663200*%


D10*
X673400Y-349400D03*
X673400Y-384400D03*
D11*
X775000Y-380000D03*
X775000Y-405400D03*
X775000Y-354600D03*
D12*
X726500Y-400000D03*
X743500Y-400000D03*
X726500Y-440000D03*
X743500Y-440000D03*
D13*
X883800Y179800D03*
X960000Y-277400D03*
X1036200Y154400D03*
D11*
X1036200Y179800D03*
D14*
X1036200Y129000D03*
X934600Y-277400D03*
D15*
X909200Y-277400D03*
X985400Y-277400D03*
X1010800Y-277400D03*
X1036200Y-150400D03*
X883800Y-150400D03*
X883800Y154400D03*
X883800Y129000D03*
X883800Y103600D03*
X883800Y78200D03*
X883800Y52800D03*
X883800Y27400D03*
X883800Y2000D03*
X883800Y-23400D03*
X883800Y-48800D03*
X883800Y-74200D03*
X883800Y-99600D03*
X883800Y-125000D03*
X1010800Y154400D03*
X1036200Y-125000D03*
X1036200Y-99600D03*
X1036200Y-74200D03*
X1036200Y-48800D03*
X1036200Y-23400D03*
X1036200Y2000D03*
X1036200Y27400D03*
X1036200Y52800D03*
X1036200Y78200D03*
X1036200Y103600D03*
D14*
X883800Y-175800D03*
D15*
X883800Y-226600D03*
X883800Y-252000D03*
X883800Y-277400D03*
X883800Y-302800D03*
X883800Y-328200D03*
X883800Y-353600D03*
X883800Y-379000D03*
X883800Y-404400D03*
X1036200Y-201200D03*
X1036200Y-226600D03*
X1036200Y-252000D03*
X1036200Y-277400D03*
X1036200Y-302800D03*
X1036200Y-328200D03*
X1036200Y-353600D03*
X1036200Y-379000D03*
X1036200Y-404400D03*
X913800Y116300D03*
X913800Y90900D03*
X913800Y65500D03*
X913800Y40100D03*
X913800Y14700D03*
X883800Y-201200D03*
D13*
X1036200Y-175800D03*
D15*
X970000Y177500D03*
X950000Y177500D03*
D16*
X1010800Y50100D03*
X990800Y50100D03*
X970800Y50100D03*
X1010800Y30100D03*
X990800Y30100D03*
X970800Y30100D03*
D17*
X1081129Y162229D02*
X1095471Y162229D01*
X1081129Y162229D02*
X1081129Y166671D01*
X1095471Y166671D01*
X1095471Y162229D01*
X1095471Y165544D02*
X1081129Y165544D01*
X1081129Y149529D02*
X1095471Y149529D01*
X1081129Y149529D02*
X1081129Y153971D01*
X1095471Y153971D01*
X1095471Y149529D01*
X1095471Y152844D02*
X1081129Y152844D01*
X1081129Y136829D02*
X1095471Y136829D01*
X1081129Y136829D02*
X1081129Y141271D01*
X1095471Y141271D01*
X1095471Y136829D01*
X1095471Y140144D02*
X1081129Y140144D01*
X1081129Y124129D02*
X1095471Y124129D01*
X1081129Y124129D02*
X1081129Y128571D01*
X1095471Y128571D01*
X1095471Y124129D01*
X1095471Y127444D02*
X1081129Y127444D01*
X1081129Y111429D02*
X1095471Y111429D01*
X1081129Y111429D02*
X1081129Y115871D01*
X1095471Y115871D01*
X1095471Y111429D01*
X1095471Y114744D02*
X1081129Y114744D01*
X1081129Y98729D02*
X1095471Y98729D01*
X1081129Y98729D02*
X1081129Y103171D01*
X1095471Y103171D01*
X1095471Y98729D01*
X1095471Y102044D02*
X1081129Y102044D01*
X1081129Y86029D02*
X1095471Y86029D01*
X1081129Y86029D02*
X1081129Y90471D01*
X1095471Y90471D01*
X1095471Y86029D01*
X1095471Y89344D02*
X1081129Y89344D01*
X1081129Y73329D02*
X1095471Y73329D01*
X1081129Y73329D02*
X1081129Y77771D01*
X1095471Y77771D01*
X1095471Y73329D01*
X1095471Y76644D02*
X1081129Y76644D01*
X1134529Y73329D02*
X1148871Y73329D01*
X1134529Y73329D02*
X1134529Y77771D01*
X1148871Y77771D01*
X1148871Y73329D01*
X1148871Y76644D02*
X1134529Y76644D01*
X1134529Y86029D02*
X1148871Y86029D01*
X1134529Y86029D02*
X1134529Y90471D01*
X1148871Y90471D01*
X1148871Y86029D01*
X1148871Y89344D02*
X1134529Y89344D01*
X1134529Y98729D02*
X1148871Y98729D01*
X1134529Y98729D02*
X1134529Y103171D01*
X1148871Y103171D01*
X1148871Y98729D01*
X1148871Y102044D02*
X1134529Y102044D01*
X1134529Y111429D02*
X1148871Y111429D01*
X1134529Y111429D02*
X1134529Y115871D01*
X1148871Y115871D01*
X1148871Y111429D01*
X1148871Y114744D02*
X1134529Y114744D01*
X1134529Y124129D02*
X1148871Y124129D01*
X1134529Y124129D02*
X1134529Y128571D01*
X1148871Y128571D01*
X1148871Y124129D01*
X1148871Y127444D02*
X1134529Y127444D01*
X1134529Y136829D02*
X1148871Y136829D01*
X1134529Y136829D02*
X1134529Y141271D01*
X1148871Y141271D01*
X1148871Y136829D01*
X1148871Y140144D02*
X1134529Y140144D01*
X1134529Y149529D02*
X1148871Y149529D01*
X1134529Y149529D02*
X1134529Y153971D01*
X1148871Y153971D01*
X1148871Y149529D01*
X1148871Y152844D02*
X1134529Y152844D01*
X1134529Y162229D02*
X1148871Y162229D01*
X1134529Y162229D02*
X1134529Y166671D01*
X1148871Y166671D01*
X1148871Y162229D01*
X1148871Y165544D02*
X1134529Y165544D01*
D12*
X1161500Y20000D03*
X1178500Y20000D03*
X1236500Y20000D03*
X1253500Y20000D03*
X1216500Y170000D03*
X1233500Y170000D03*
X1076500Y20000D03*
X1093500Y20000D03*
D18*
X1076500Y-10000D03*
X1093500Y-10000D03*
X1111500Y-10000D03*
X1128500Y-10000D03*
X1146500Y-10000D03*
X1163500Y-10000D03*
X1181500Y-10000D03*
X1198500Y-10000D03*
X1216500Y-10000D03*
X1233500Y-10000D03*
D19*
X1184906Y155160D03*
X1165602Y155160D03*
X1175254Y134840D03*
D17*
X1095471Y-57771D02*
X1081129Y-57771D01*
X1081129Y-53329D01*
X1095471Y-53329D01*
X1095471Y-57771D01*
X1095471Y-54456D02*
X1081129Y-54456D01*
X1081129Y-70471D02*
X1095471Y-70471D01*
X1081129Y-70471D02*
X1081129Y-66029D01*
X1095471Y-66029D01*
X1095471Y-70471D01*
X1095471Y-67156D02*
X1081129Y-67156D01*
X1081129Y-83171D02*
X1095471Y-83171D01*
X1081129Y-83171D02*
X1081129Y-78729D01*
X1095471Y-78729D01*
X1095471Y-83171D01*
X1095471Y-79856D02*
X1081129Y-79856D01*
X1081129Y-95871D02*
X1095471Y-95871D01*
X1081129Y-95871D02*
X1081129Y-91429D01*
X1095471Y-91429D01*
X1095471Y-95871D01*
X1095471Y-92556D02*
X1081129Y-92556D01*
X1081129Y-108571D02*
X1095471Y-108571D01*
X1081129Y-108571D02*
X1081129Y-104129D01*
X1095471Y-104129D01*
X1095471Y-108571D01*
X1095471Y-105256D02*
X1081129Y-105256D01*
X1081129Y-121271D02*
X1095471Y-121271D01*
X1081129Y-121271D02*
X1081129Y-116829D01*
X1095471Y-116829D01*
X1095471Y-121271D01*
X1095471Y-117956D02*
X1081129Y-117956D01*
X1081129Y-133971D02*
X1095471Y-133971D01*
X1081129Y-133971D02*
X1081129Y-129529D01*
X1095471Y-129529D01*
X1095471Y-133971D01*
X1095471Y-130656D02*
X1081129Y-130656D01*
X1081129Y-146671D02*
X1095471Y-146671D01*
X1081129Y-146671D02*
X1081129Y-142229D01*
X1095471Y-142229D01*
X1095471Y-146671D01*
X1095471Y-143356D02*
X1081129Y-143356D01*
X1134529Y-146671D02*
X1148871Y-146671D01*
X1134529Y-146671D02*
X1134529Y-142229D01*
X1148871Y-142229D01*
X1148871Y-146671D01*
X1148871Y-143356D02*
X1134529Y-143356D01*
X1134529Y-133971D02*
X1148871Y-133971D01*
X1134529Y-133971D02*
X1134529Y-129529D01*
X1148871Y-129529D01*
X1148871Y-133971D01*
X1148871Y-130656D02*
X1134529Y-130656D01*
X1134529Y-121271D02*
X1148871Y-121271D01*
X1134529Y-121271D02*
X1134529Y-116829D01*
X1148871Y-116829D01*
X1148871Y-121271D01*
X1148871Y-117956D02*
X1134529Y-117956D01*
X1134529Y-108571D02*
X1148871Y-108571D01*
X1134529Y-108571D02*
X1134529Y-104129D01*
X1148871Y-104129D01*
X1148871Y-108571D01*
X1148871Y-105256D02*
X1134529Y-105256D01*
X1134529Y-95871D02*
X1148871Y-95871D01*
X1134529Y-95871D02*
X1134529Y-91429D01*
X1148871Y-91429D01*
X1148871Y-95871D01*
X1148871Y-92556D02*
X1134529Y-92556D01*
X1134529Y-83171D02*
X1148871Y-83171D01*
X1134529Y-83171D02*
X1134529Y-78729D01*
X1148871Y-78729D01*
X1148871Y-83171D01*
X1148871Y-79856D02*
X1134529Y-79856D01*
X1134529Y-70471D02*
X1148871Y-70471D01*
X1134529Y-70471D02*
X1134529Y-66029D01*
X1148871Y-66029D01*
X1148871Y-70471D01*
X1148871Y-67156D02*
X1134529Y-67156D01*
X1134529Y-57771D02*
X1148871Y-57771D01*
X1134529Y-57771D02*
X1134529Y-53329D01*
X1148871Y-53329D01*
X1148871Y-57771D01*
X1148871Y-54456D02*
X1134529Y-54456D01*
D12*
X1161500Y-200000D03*
X1178500Y-200000D03*
X1236500Y-200000D03*
X1253500Y-200000D03*
X1216500Y-50000D03*
X1233500Y-50000D03*
X1076500Y-200000D03*
X1093500Y-200000D03*
D18*
X1076500Y-230000D03*
X1093500Y-230000D03*
X1111500Y-230000D03*
X1128500Y-230000D03*
X1146500Y-230000D03*
X1163500Y-230000D03*
X1181500Y-230000D03*
X1198500Y-230000D03*
X1216500Y-230000D03*
X1233500Y-230000D03*
D19*
X1184906Y-64840D03*
X1165602Y-64840D03*
X1175254Y-85160D03*
D17*
X1095471Y-277771D02*
X1081129Y-277771D01*
X1081129Y-273329D01*
X1095471Y-273329D01*
X1095471Y-277771D01*
X1095471Y-274456D02*
X1081129Y-274456D01*
X1081129Y-290471D02*
X1095471Y-290471D01*
X1081129Y-290471D02*
X1081129Y-286029D01*
X1095471Y-286029D01*
X1095471Y-290471D01*
X1095471Y-287156D02*
X1081129Y-287156D01*
X1081129Y-303171D02*
X1095471Y-303171D01*
X1081129Y-303171D02*
X1081129Y-298729D01*
X1095471Y-298729D01*
X1095471Y-303171D01*
X1095471Y-299856D02*
X1081129Y-299856D01*
X1081129Y-315871D02*
X1095471Y-315871D01*
X1081129Y-315871D02*
X1081129Y-311429D01*
X1095471Y-311429D01*
X1095471Y-315871D01*
X1095471Y-312556D02*
X1081129Y-312556D01*
X1081129Y-328571D02*
X1095471Y-328571D01*
X1081129Y-328571D02*
X1081129Y-324129D01*
X1095471Y-324129D01*
X1095471Y-328571D01*
X1095471Y-325256D02*
X1081129Y-325256D01*
X1081129Y-341271D02*
X1095471Y-341271D01*
X1081129Y-341271D02*
X1081129Y-336829D01*
X1095471Y-336829D01*
X1095471Y-341271D01*
X1095471Y-337956D02*
X1081129Y-337956D01*
X1081129Y-353971D02*
X1095471Y-353971D01*
X1081129Y-353971D02*
X1081129Y-349529D01*
X1095471Y-349529D01*
X1095471Y-353971D01*
X1095471Y-350656D02*
X1081129Y-350656D01*
X1081129Y-366671D02*
X1095471Y-366671D01*
X1081129Y-366671D02*
X1081129Y-362229D01*
X1095471Y-362229D01*
X1095471Y-366671D01*
X1095471Y-363356D02*
X1081129Y-363356D01*
X1134529Y-366671D02*
X1148871Y-366671D01*
X1134529Y-366671D02*
X1134529Y-362229D01*
X1148871Y-362229D01*
X1148871Y-366671D01*
X1148871Y-363356D02*
X1134529Y-363356D01*
X1134529Y-353971D02*
X1148871Y-353971D01*
X1134529Y-353971D02*
X1134529Y-349529D01*
X1148871Y-349529D01*
X1148871Y-353971D01*
X1148871Y-350656D02*
X1134529Y-350656D01*
X1134529Y-341271D02*
X1148871Y-341271D01*
X1134529Y-341271D02*
X1134529Y-336829D01*
X1148871Y-336829D01*
X1148871Y-341271D01*
X1148871Y-337956D02*
X1134529Y-337956D01*
X1134529Y-328571D02*
X1148871Y-328571D01*
X1134529Y-328571D02*
X1134529Y-324129D01*
X1148871Y-324129D01*
X1148871Y-328571D01*
X1148871Y-325256D02*
X1134529Y-325256D01*
X1134529Y-315871D02*
X1148871Y-315871D01*
X1134529Y-315871D02*
X1134529Y-311429D01*
X1148871Y-311429D01*
X1148871Y-315871D01*
X1148871Y-312556D02*
X1134529Y-312556D01*
X1134529Y-303171D02*
X1148871Y-303171D01*
X1134529Y-303171D02*
X1134529Y-298729D01*
X1148871Y-298729D01*
X1148871Y-303171D01*
X1148871Y-299856D02*
X1134529Y-299856D01*
X1134529Y-290471D02*
X1148871Y-290471D01*
X1134529Y-290471D02*
X1134529Y-286029D01*
X1148871Y-286029D01*
X1148871Y-290471D01*
X1148871Y-287156D02*
X1134529Y-287156D01*
X1134529Y-277771D02*
X1148871Y-277771D01*
X1134529Y-277771D02*
X1134529Y-273329D01*
X1148871Y-273329D01*
X1148871Y-277771D01*
X1148871Y-274456D02*
X1134529Y-274456D01*
D12*
X1161500Y-420000D03*
X1178500Y-420000D03*
X1236500Y-420000D03*
X1253500Y-420000D03*
X1216500Y-270000D03*
X1233500Y-270000D03*
X1076500Y-420000D03*
X1093500Y-420000D03*
D18*
X1076500Y-450000D03*
X1093500Y-450000D03*
X1111500Y-450000D03*
X1128500Y-450000D03*
X1146500Y-450000D03*
X1163500Y-450000D03*
X1181500Y-450000D03*
X1198500Y-450000D03*
X1216500Y-450000D03*
X1233500Y-450000D03*
D19*
X1184906Y-284840D03*
X1165602Y-284840D03*
X1175254Y-305160D03*
D20*
X805100Y-177850D03*
X779700Y-190550D03*
X805100Y-203250D03*
X779700Y-215950D03*
X805100Y-228650D03*
X779700Y-241350D03*
X805100Y-254050D03*
X779700Y-266750D03*
X805100Y-279450D03*
X779700Y-292150D03*
D21*
X716200Y-292150D03*
X716200Y-177850D03*
D20*
X805100Y2150D03*
X779700Y-10550D03*
X805100Y-23250D03*
X779700Y-35950D03*
X805100Y-48650D03*
X779700Y-61350D03*
X805100Y-74050D03*
X779700Y-86750D03*
X805100Y-99450D03*
X779700Y-112150D03*
D21*
X716200Y-112150D03*
X716200Y2150D03*
D20*
X805100Y182150D03*
X779700Y169450D03*
X805100Y156750D03*
X779700Y144050D03*
X805100Y131350D03*
X779700Y118650D03*
X805100Y105950D03*
X779700Y93250D03*
X805100Y80550D03*
X779700Y67850D03*
D21*
X716200Y67850D03*
X716200Y182150D03*
D22*
X954000Y-505000D03*
X976000Y-495500D03*
X976000Y-514500D03*
X1014000Y-505000D03*
X1036000Y-495500D03*
X1036000Y-514500D03*
X1074000Y-505000D03*
X1096000Y-495500D03*
X1096000Y-514500D03*
X1134000Y-505000D03*
X1156000Y-495500D03*
X1156000Y-514500D03*
X1194000Y-505000D03*
X1216000Y-495500D03*
X1216000Y-514500D03*
X1254000Y-505000D03*
X1276000Y-495500D03*
X1276000Y-514500D03*
D23*
X766500Y-495000D03*
X791900Y-495000D03*
X817300Y-495000D03*
X842700Y-495000D03*
X868100Y-495000D03*
X893500Y-495000D03*
X766500Y-545000D03*
X791900Y-545000D03*
X817300Y-545000D03*
X842700Y-545000D03*
X868100Y-545000D03*
X893500Y-545000D03*
D10*
X673400Y-452000D03*
X673400Y-487000D03*
D24*
X659600Y-545000D03*
X685000Y-545000D03*
X710400Y-545000D03*
D22*
X954000Y-470000D03*
X976000Y-460500D03*
X976000Y-479500D03*
D25*
X845000Y161000D03*
X854500Y139000D03*
X835500Y139000D03*
X845000Y101000D03*
X854500Y79000D03*
X835500Y79000D03*
X845000Y41000D03*
X854500Y19000D03*
X835500Y19000D03*
X845000Y-19000D03*
X854500Y-41000D03*
X835500Y-41000D03*
X845000Y-79000D03*
X854500Y-101000D03*
X835500Y-101000D03*
X845000Y-139000D03*
X854500Y-161000D03*
X835500Y-161000D03*
X845000Y-199000D03*
X854500Y-221000D03*
X835500Y-221000D03*
X845000Y-259000D03*
X854500Y-281000D03*
X835500Y-281000D03*
X845000Y-319000D03*
X854500Y-341000D03*
X835500Y-341000D03*
X845000Y-379000D03*
X854500Y-401000D03*
X835500Y-401000D03*
X845000Y-439000D03*
X854500Y-461000D03*
X835500Y-461000D03*
D26*
X855218Y-129223D03*
X1127760Y72835D03*
X1151255Y18796D03*
X1188847Y-18796D03*
X1090168Y63437D03*
X1174750Y-25845D03*
X1188847Y18796D03*
X965645Y-110427D03*
X1155954Y-18796D03*
X1137158Y0D03*
X1174750Y145669D03*
X1130110Y145669D03*
X1177100Y155067D03*
X1127760Y155067D03*
X1158304Y164465D03*
X1099566Y145669D03*
X1076071Y58738D03*
X1108964Y-493395D03*
X1228789Y30544D03*
X1200595Y-460502D03*
X1214692Y25845D03*
X1127760Y32893D03*
X1078421Y82233D03*
X951548Y44641D03*
X862267Y-385318D03*
X1099566Y-190310D03*
X1099566Y-213805D03*
X862267Y-451104D03*
X1097217Y-152718D03*
X1160653Y-239649D03*
X1160653Y-124524D03*
X963295Y-206756D03*
X1155954Y-220853D03*
X1113663Y-140970D03*
X1137158Y-42291D03*
X1118362Y-68136D03*
X1179449Y-75184D03*
X1076071Y-75184D03*
X1141857Y-46990D03*
X1127760Y-61087D03*
X1024382Y-209106D03*
X1108964Y-126873D03*
X1047877Y-324231D03*
X1111314Y-173863D03*
X1146556Y-202057D03*
X1104265Y-143320D03*
X1047877Y-178562D03*
X1059625Y58738D03*
X1160653Y-387668D03*
X1099566Y-319532D03*
X862267Y-18796D03*
X1099566Y-375920D03*
X1163003Y-429959D03*
X1172401Y-354775D03*
X937451Y136271D03*
X1163003Y-293688D03*
X1130110Y-293688D03*
X1165352Y-274892D03*
X1127760Y-284290D03*
X1123061Y-270193D03*
X1101916Y-291338D03*
X1205294Y-465201D03*
X998538Y166815D03*
X1193546Y-354775D03*
X1029081Y89281D03*
X1172401Y-458153D03*
X1153605Y-439357D03*
X989140Y-458153D03*
X1099566Y-331280D03*
X1155954Y-265494D03*
X1099566Y-101029D03*
X1099566Y-28194D03*
X1207643Y-49340D03*
X1207643Y169164D03*
X1207643Y-265494D03*
X1205294Y-483997D03*
X1158304Y-340678D03*
X1113663Y-460502D03*
X1061974Y-437007D03*
X1054926Y-131572D03*
X949198Y-28194D03*
X972693Y-187960D03*
X967994Y-86932D03*
X817626Y-371221D03*
X895160Y-216154D03*
X824675Y-335979D03*
X836422Y-429959D03*
X843471Y-364173D03*
X871665Y-119825D03*
X904558Y-406464D03*
X763588Y-373571D03*
M02*
