M48
;GenerationSoftware,Autodesk,EAGLE,9.6.2*%
;CreationDate,2023-11-08T20:45:37Z*%
FMAT,2
ICI,OFF
METRIC,TZ,000.000
T7C0.200
T6C0.600
T5C0.890
T4C0.900
T3C1.000
T2C1.016
T1C3.250
%
G90
M71
T1
X71620Y-29215
X71620Y-17785
X71620Y-11215
X71620Y215
X71620Y6785
X71620Y18215
T2
X81730Y-54500
X79190Y-54500
X76650Y-54500
X89350Y-49500
X86810Y-49500
X84270Y-49500
X81730Y-49500
X76650Y-49500
X71040Y-54500
X68500Y-54500
X65960Y-54500
X89350Y-54500
X79190Y-49500
X86810Y-54500
X84270Y-54500
T3
X103620Y-35360
X103620Y-37900
X103620Y-40440
X91380Y11630
X91380Y9090
X91380Y6550
X91380Y4010
X91380Y1470
X88380Y-20120
X103620Y-17580
X95000Y17750
X67340Y-45200
X67340Y-48700
X90920Y-27740
X67340Y-34940
X67340Y-38440
X88380Y17980
X96000Y-27740
X103620Y15440
X103620Y17980
X103620Y12900
X93460Y-27740
X97000Y17750
X98540Y-27740
X101080Y-27740
X103620Y-15040
X88380Y-15040
X103620Y10360
X88380Y15440
X88380Y12900
X88380Y10360
X88380Y7820
X88380Y5280
X88380Y2740
X88380Y200
X88380Y-2340
X88380Y-4880
X88380Y-7420
X88380Y-9960
X88380Y-12500
X101080Y15440
X103620Y-12500
X103620Y-9960
X103620Y-7420
X103620Y-4880
X103620Y-2340
X103620Y200
X103620Y2740
X103620Y5280
X103620Y7820
X88380Y-17580
X88380Y-22660
X88380Y-25200
X88380Y-27740
X88380Y-30280
X88380Y-32820
X88380Y-35360
X88380Y-37900
X88380Y-40440
X103620Y-20120
X103620Y-22660
X103620Y-25200
X103620Y-27740
X103620Y-30280
X103620Y-32820
T4
X77500Y-40540
X77500Y-35460
X77500Y-38000
T5
X80510Y-4865
X80510Y8055
X77970Y6785
X77970Y-11215
X80510Y-17785
X77970Y-19055
X80510Y-20325
X77970Y-21595
X80510Y-22865
X77970Y-24135
X80510Y-25405
X77970Y-26675
X80510Y-27945
X77970Y-29215
X80510Y215
X77970Y-1055
X80510Y-2325
X77970Y-3595
X77970Y-6135
X80510Y-7405
X77970Y-8675
X80510Y-9945
X80510Y18215
X77970Y16945
X80510Y15675
X77970Y14405
X80510Y13135
X77970Y11865
X80510Y10595
X77970Y9325
T6
X99080Y3010
X101080Y5010
X99080Y5010
X101080Y3010
X97080Y5010
X97080Y3010
T7
X112776Y-6109
X102438Y-20911
X110896Y-12687
X104788Y-32423
X111131Y-17386
X114656Y-20206
X110426Y-14332
X104788Y-17856
X105962Y5874
X116065Y-38767
X109957Y-31953
X109957Y-37592
X116300Y-42996
X117240Y-35477
X93745Y13627
X116300Y-29369
X113011Y-29369
X116535Y-27489
X112776Y-28429
X112306Y-27019
X110192Y-29134
X120529Y-46520
X99854Y16681
X119355Y-35477
X102908Y8928
X117240Y-45815
X107607Y5874
X98914Y-45815
X109957Y-33128
X115595Y-26549
X109957Y-10103
X109957Y-2819
X120764Y-4934
X120764Y16916
X120764Y-26549
X120529Y-48400
X115830Y-34068
X111366Y-46050
X85522Y-12922
X112776Y7283
X115125Y1880
X118885Y-1880
X115360Y-43936
X109017Y6344
X117475Y-2584
X118885Y1880
X96564Y-11043
X115595Y-1880
X113716Y0
X117475Y14567
X113011Y14567
X117710Y15507
X112776Y15507
X115830Y16447
X109957Y14567
X110896Y-49339
X122879Y3054
X120059Y-46050
X121469Y2584
X112776Y3289
X107842Y8223
X95155Y4464
X86227Y-38532
X86227Y-45110
X109957Y-19031
X109957Y-21380
X109722Y-15272
X116065Y-23965
X116065Y-12452
X96329Y-20676
X115595Y-22085
X111366Y-14097
X113716Y-4229
X111836Y-6814
X86227Y-1880
X117945Y-7518
X76359Y-37357
X90456Y-40646
X87166Y-11982
X84347Y-36417
X83642Y-42996
X82467Y-33598
X89516Y-21615
X81763Y-37122
X96799Y-8693
X94920Y-2819
X107607Y-7518
X97269Y-18796
X105493Y-13157
X106197Y-43701
X114186Y-4699
M30